<svg width="110" height="22" viewBox="0 0 110 22" fill="none" xmlns="http://www.w3.org/2000/svg">
<rect x="1" y="1" width="2" height="2" fill="#00FFFF"/>
<rect x="3" y="1" width="2" height="2" fill="#00FFFF"/>
<rect x="5" y="1" width="2" height="2" fill="#00FFFF"/>
<rect x="7" y="3" width="2" height="2" fill="#00FFFF"/>
<rect x="7" y="5" width="2" height="2" fill="#00FFFF"/>
<rect x="7" y="7" width="2" height="2" fill="#00FFFF"/>
<rect x="5" y="9" width="2" height="2" fill="#00FFFF"/>
<rect x="3" y="9" width="2" height="2" fill="#00FFFF"/>
<rect x="11" y="7" width="2" height="2" fill="#00FFFF"/>
<rect x="21" y="7" width="2" height="2" fill="#00FFFF"/>
<rect x="21" y="5" width="2" height="2" fill="#00FFFF"/>
<rect x="23" y="5" width="2" height="2" fill="#00FFFF"/>
<rect x="27" y="9" width="2" height="2" fill="#00FFFF"/>
<rect x="29" y="7" width="2" height="2" fill="#00FFFF"/>
<rect x="31" y="7" width="2" height="2" fill="#00FFFF"/>
<rect x="35" y="7" width="2" height="2" fill="#00FFFF"/>
<rect x="37" y="7" width="2" height="2" fill="#00FFFF"/>
<rect x="39" y="9" width="2" height="2" fill="#00FFFF"/>
<rect x="39" y="7" width="2" height="2" fill="#00FFFF"/>
<rect x="47" y="7" width="2" height="2" fill="#00FFFF"/>
<rect x="73" y="7" width="2" height="2" fill="#00FFFF"/>
<rect x="79" y="7" width="2" height="2" fill="#00FFFF"/>
<rect x="95" y="7" width="2" height="2" fill="#00FFFF"/>
<rect x="65" y="13" width="2" height="2" fill="#00FFFF"/>
<rect x="47" y="9" width="2" height="2" fill="#00FFFF"/>
<rect x="73" y="9" width="2" height="2" fill="#00FFFF"/>
<rect x="79" y="9" width="2" height="2" fill="#00FFFF"/>
<rect x="95" y="9" width="2" height="2" fill="#00FFFF"/>
<rect x="65" y="15" width="2" height="2" fill="#00FFFF"/>
<rect x="47" y="11" width="2" height="2" fill="#00FFFF"/>
<rect x="73" y="11" width="2" height="2" fill="#00FFFF"/>
<rect x="79" y="11" width="2" height="2" fill="#00FFFF"/>
<rect x="95" y="11" width="2" height="2" fill="#00FFFF"/>
<rect x="65" y="17" width="2" height="2" fill="#00FFFF"/>
<rect x="47" y="13" width="2" height="2" fill="#00FFFF"/>
<rect x="73" y="13" width="2" height="2" fill="#00FFFF"/>
<rect x="79" y="13" width="2" height="2" fill="#00FFFF"/>
<rect x="95" y="13" width="2" height="2" fill="#00FFFF"/>
<rect x="65" y="19" width="2" height="2" fill="#00FFFF"/>
<rect x="47" y="15" width="2" height="2" fill="#00FFFF"/>
<rect x="73" y="15" width="2" height="2" fill="#00FFFF"/>
<rect x="75" y="15" width="2" height="2" fill="#00FFFF"/>
<rect x="79" y="15" width="2" height="2" fill="#00FFFF"/>
<rect x="95" y="15" width="2" height="2" fill="#00FFFF"/>
<rect x="51" y="15" width="2" height="2" fill="#00FFFF"/>
<rect x="53" y="15" width="2" height="2" fill="#00FFFF"/>
<rect x="49" y="15" width="2" height="2" fill="#00FFFF"/>
<rect x="49" y="7" width="2" height="2" fill="#00FFFF"/>
<rect x="51" y="7" width="2" height="2" fill="#00FFFF"/>
<rect x="57" y="15" width="2" height="2" fill="#00FFFF"/>
<rect x="57" y="13" width="2" height="2" fill="#00FFFF"/>
<rect x="61" y="13" width="2" height="2" fill="#00FFFF"/>
<rect x="61" y="15" width="2" height="2" fill="#00FFFF"/>
<rect x="61" y="9" width="2" height="2" fill="#00FFFF"/>
<rect x="61" y="7" width="2" height="2" fill="#00FFFF"/>
<rect x="57" y="7" width="2" height="2" fill="#00FFFF"/>
<rect x="57" y="9" width="2" height="2" fill="#00FFFF"/>
<rect x="59" y="11" width="2" height="2" fill="#00FFFF"/>
<rect x="47" y="5" width="2" height="2" fill="#00FFFF"/>
<rect x="73" y="5" width="2" height="2" fill="#00FFFF"/>
<rect x="83" y="11" width="2" height="2" fill="#00FFFF"/>
<rect x="99" y="11" width="2" height="2" fill="#00FFFF"/>
<rect x="87" y="11" width="2" height="2" fill="#00FFFF"/>
<rect x="103" y="11" width="2" height="2" fill="#00FFFF"/>
<rect x="83" y="13" width="2" height="2" fill="#00FFFF"/>
<rect x="97" y="11" width="2" height="2" fill="#00FFFF"/>
<rect x="87" y="13" width="2" height="2" fill="#00FFFF"/>
<rect x="103" y="13" width="2" height="2" fill="#00FFFF"/>
<rect x="83" y="15" width="2" height="2" fill="#00FFFF"/>
<rect x="99" y="15" width="2" height="2" fill="#00FFFF"/>
<rect x="87" y="15" width="2" height="2" fill="#00FFFF"/>
<rect x="103" y="15" width="2" height="2" fill="#00FFFF"/>
<rect x="81" y="15" width="2" height="2" fill="#00FFFF"/>
<rect x="97" y="15" width="2" height="2" fill="#00FFFF"/>
<rect x="81" y="7" width="2" height="2" fill="#00FFFF"/>
<rect x="97" y="7" width="2" height="2" fill="#00FFFF"/>
<rect x="65" y="11" width="2" height="2" fill="#00FFFF"/>
<rect x="47" y="3" width="2" height="2" fill="#00FFFF"/>
<rect x="73" y="3" width="2" height="2" fill="#00FFFF"/>
<rect x="83" y="9" width="2" height="2" fill="#00FFFF"/>
<rect x="99" y="9" width="2" height="2" fill="#00FFFF"/>
<rect x="87" y="9" width="2" height="2" fill="#00FFFF"/>
<rect x="103" y="9" width="2" height="2" fill="#00FFFF"/>
<rect x="89" y="9" width="2" height="2" fill="#00FFFF"/>
<rect x="105" y="9" width="2" height="2" fill="#00FFFF"/>
<rect x="107" y="7" width="2" height="2" fill="#00FFFF"/>
<rect x="91" y="7" width="2" height="2" fill="#00FFFF"/>
<rect x="65" y="9" width="2" height="2" fill="#00FFFF"/>
<rect x="47" y="1" width="2" height="2" fill="#00FFFF"/>
<rect x="73" y="1" width="2" height="2" fill="#00FFFF"/>
<rect x="83" y="7" width="2" height="2" fill="#00FFFF"/>
<rect x="99" y="7" width="2" height="2" fill="#00FFFF"/>
<rect x="87" y="7" width="2" height="2" fill="#00FFFF"/>
<rect x="103" y="7" width="2" height="2" fill="#00FFFF"/>
<rect x="65" y="7" width="2" height="2" fill="#00FFFF"/>
<rect x="67" y="7" width="2" height="2" fill="#00FFFF"/>
<rect x="69" y="7" width="2" height="2" fill="#00FFFF"/>
<rect x="69" y="9" width="2" height="2" fill="#00FFFF"/>
<rect x="69" y="11" width="2" height="2" fill="#00FFFF"/>
<rect x="67" y="15" width="2" height="2" fill="#00FFFF"/>
<rect x="69" y="15" width="2" height="2" fill="#00FFFF"/>
<rect x="69" y="13" width="2" height="2" fill="#00FFFF"/>
<rect x="49" y="1" width="2" height="2" fill="#00FFFF"/>
<rect x="51" y="1" width="2" height="2" fill="#00FFFF"/>
<rect x="53" y="1" width="2" height="2" fill="#00FFFF"/>
<rect x="39" y="11" width="2" height="2" fill="#00FFFF"/>
<rect x="39" y="13" width="2" height="2" fill="#00FFFF"/>
<rect x="39" y="15" width="2" height="2" fill="#00FFFF"/>
<rect x="35" y="1" width="2" height="2" fill="#00FFFF"/>
<rect x="35" y="9" width="2" height="2" fill="#00FFFF"/>
<rect x="35" y="3" width="2" height="2" fill="#00FFFF"/>
<rect x="35" y="11" width="2" height="2" fill="#00FFFF"/>
<rect x="35" y="13" width="2" height="2" fill="#00FFFF"/>
<rect x="35" y="15" width="2" height="2" fill="#00FFFF"/>
<rect x="35" y="5" width="2" height="2" fill="#00FFFF"/>
<rect x="27" y="11" width="2" height="2" fill="#00FFFF"/>
<rect x="27" y="13" width="2" height="2" fill="#00FFFF"/>
<rect x="29" y="15" width="2" height="2" fill="#00FFFF"/>
<rect x="31" y="15" width="2" height="2" fill="#00FFFF"/>
<rect x="19" y="5" width="2" height="2" fill="#00FFFF"/>
<rect x="21" y="3" width="2" height="2" fill="#00FFFF"/>
<rect x="21" y="1" width="2" height="2" fill="#00FFFF"/>
<rect x="21" y="9" width="2" height="2" fill="#00FFFF"/>
<rect x="21" y="11" width="2" height="2" fill="#00FFFF"/>
<rect x="21" y="13" width="2" height="2" fill="#00FFFF"/>
<rect x="21" y="15" width="2" height="2" fill="#00FFFF"/>
<rect x="23" y="15" width="2" height="2" fill="#00FFFF"/>
<rect x="13" y="7" width="2" height="2" fill="#00FFFF"/>
<rect x="15" y="7" width="2" height="2" fill="#00FFFF"/>
<rect x="15" y="9" width="2" height="2" fill="#00FFFF"/>
<rect x="15" y="11" width="2" height="2" fill="#00FFFF"/>
<rect x="15" y="13" width="2" height="2" fill="#00FFFF"/>
<rect x="15" y="15" width="2" height="2" fill="#00FFFF"/>
<rect x="17" y="15" width="2" height="2" fill="#00FFFF"/>
<rect x="13" y="15" width="2" height="2" fill="#00FFFF"/>
<rect x="11" y="15" width="2" height="2" fill="#00FFFF"/>
<rect x="11" y="13" width="2" height="2" fill="#00FFFF"/>
<rect x="11" y="11" width="2" height="2" fill="#00FFFF"/>
<rect x="13" y="11" width="2" height="2" fill="#00FFFF"/>
<rect x="1" y="3" width="2" height="2" fill="#00FFFF"/>
<rect x="1" y="5" width="2" height="2" fill="#00FFFF"/>
<rect x="1" y="7" width="2" height="2" fill="#00FFFF"/>
<rect x="1" y="9" width="2" height="2" fill="#00FFFF"/>
<rect x="1" y="11" width="2" height="2" fill="#00FFFF"/>
<rect x="1" y="13" width="2" height="2" fill="#00FFFF"/>
<rect x="1" y="15" width="2" height="2" fill="#00FFFF"/>
</svg>
