<svg width="110" height="22" viewBox="0 0 110 22" fill="none" xmlns="http://www.w3.org/2000/svg">
<path d="M3 1H1V3H3V1Z" fill="#00FF00"/>
<path d="M5 1H3V3H5V1Z" fill="#00FF00"/>
<path d="M7 1H5V3H7V1Z" fill="#00FF00"/>
<path d="M9 3H7V5H9V3Z" fill="#00FF00"/>
<path d="M9 5H7V7H9V5Z" fill="#00FF00"/>
<path d="M9 7H7V9H9V7Z" fill="#00FF00"/>
<path d="M7 9H5V11H7V9Z" fill="#00FF00"/>
<path d="M5 9H3V11H5V9Z" fill="#00FF00"/>
<path d="M13 7H11V9H13V7Z" fill="#00FF00"/>
<path d="M23 7H21V9H23V7Z" fill="#00FF00"/>
<path d="M23 5H21V7H23V5Z" fill="#00FF00"/>
<path d="M25 5H23V7H25V5Z" fill="#00FF00"/>
<path d="M29 9H27V11H29V9Z" fill="#00FF00"/>
<path d="M31 7H29V9H31V7Z" fill="#00FF00"/>
<path d="M33 7H31V9H33V7Z" fill="#00FF00"/>
<path d="M37 7H35V9H37V7Z" fill="#00FF00"/>
<path d="M39 7H37V9H39V7Z" fill="#00FF00"/>
<path d="M41 9H39V11H41V9Z" fill="#00FF00"/>
<path d="M41 7H39V9H41V7Z" fill="#00FF00"/>
<path d="M49 7H47V9H49V7Z" fill="#00FF00"/>
<path d="M75 7H73V9H75V7Z" fill="#00FF00"/>
<path d="M81 7H79V9H81V7Z" fill="#00FF00"/>
<path d="M97 7H95V9H97V7Z" fill="#00FF00"/>
<path d="M67 13H65V15H67V13Z" fill="#00FF00"/>
<path d="M49 9H47V11H49V9Z" fill="#00FF00"/>
<path d="M75 9H73V11H75V9Z" fill="#00FF00"/>
<path d="M81 9H79V11H81V9Z" fill="#00FF00"/>
<path d="M97 9H95V11H97V9Z" fill="#00FF00"/>
<path d="M67 15H65V17H67V15Z" fill="#00FF00"/>
<path d="M49 11H47V13H49V11Z" fill="#00FF00"/>
<path d="M75 11H73V13H75V11Z" fill="#00FF00"/>
<path d="M81 11H79V13H81V11Z" fill="#00FF00"/>
<path d="M97 11H95V13H97V11Z" fill="#00FF00"/>
<path d="M67 17H65V19H67V17Z" fill="#00FF00"/>
<path d="M49 13H47V15H49V13Z" fill="#00FF00"/>
<path d="M75 13H73V15H75V13Z" fill="#00FF00"/>
<path d="M81 13H79V15H81V13Z" fill="#00FF00"/>
<path d="M97 13H95V15H97V13Z" fill="#00FF00"/>
<path d="M67 19H65V21H67V19Z" fill="#00FF00"/>
<path d="M49 15H47V17H49V15Z" fill="#00FF00"/>
<path d="M75 15H73V17H75V15Z" fill="#00FF00"/>
<path d="M77 15H75V17H77V15Z" fill="#00FF00"/>
<path d="M81 15H79V17H81V15Z" fill="#00FF00"/>
<path d="M97 15H95V17H97V15Z" fill="#00FF00"/>
<path d="M53 15H51V17H53V15Z" fill="#00FF00"/>
<path d="M55 15H53V17H55V15Z" fill="#00FF00"/>
<path d="M51 15H49V17H51V15Z" fill="#00FF00"/>
<path d="M51 7H49V9H51V7Z" fill="#00FF00"/>
<path d="M53 7H51V9H53V7Z" fill="#00FF00"/>
<path d="M59 15H57V17H59V15Z" fill="#00FF00"/>
<path d="M59 13H57V15H59V13Z" fill="#00FF00"/>
<path d="M63 13H61V15H63V13Z" fill="#00FF00"/>
<path d="M63 15H61V17H63V15Z" fill="#00FF00"/>
<path d="M63 9H61V11H63V9Z" fill="#00FF00"/>
<path d="M63 7H61V9H63V7Z" fill="#00FF00"/>
<path d="M59 7H57V9H59V7Z" fill="#00FF00"/>
<path d="M59 9H57V11H59V9Z" fill="#00FF00"/>
<path d="M61 11H59V13H61V11Z" fill="#00FF00"/>
<path d="M49 5H47V7H49V5Z" fill="#00FF00"/>
<path d="M75 5H73V7H75V5Z" fill="#00FF00"/>
<path d="M85 11H83V13H85V11Z" fill="#00FF00"/>
<path d="M101 11H99V13H101V11Z" fill="#00FF00"/>
<path d="M89 11H87V13H89V11Z" fill="#00FF00"/>
<path d="M105 11H103V13H105V11Z" fill="#00FF00"/>
<path d="M85 13H83V15H85V13Z" fill="#00FF00"/>
<path d="M99 11H97V13H99V11Z" fill="#00FF00"/>
<path d="M89 13H87V15H89V13Z" fill="#00FF00"/>
<path d="M105 13H103V15H105V13Z" fill="#00FF00"/>
<path d="M85 15H83V17H85V15Z" fill="#00FF00"/>
<path d="M101 15H99V17H101V15Z" fill="#00FF00"/>
<path d="M89 15H87V17H89V15Z" fill="#00FF00"/>
<path d="M105 15H103V17H105V15Z" fill="#00FF00"/>
<path d="M83 15H81V17H83V15Z" fill="#00FF00"/>
<path d="M99 15H97V17H99V15Z" fill="#00FF00"/>
<path d="M83 7H81V9H83V7Z" fill="#00FF00"/>
<path d="M99 7H97V9H99V7Z" fill="#00FF00"/>
<path d="M67 11H65V13H67V11Z" fill="#00FF00"/>
<path d="M49 3H47V5H49V3Z" fill="#00FF00"/>
<path d="M75 3H73V5H75V3Z" fill="#00FF00"/>
<path d="M85 9H83V11H85V9Z" fill="#00FF00"/>
<path d="M101 9H99V11H101V9Z" fill="#00FF00"/>
<path d="M89 9H87V11H89V9Z" fill="#00FF00"/>
<path d="M105 9H103V11H105V9Z" fill="#00FF00"/>
<path d="M91 9H89V11H91V9Z" fill="#00FF00"/>
<path d="M107 9H105V11H107V9Z" fill="#00FF00"/>
<path d="M109 7H107V9H109V7Z" fill="#00FF00"/>
<path d="M93 7H91V9H93V7Z" fill="#00FF00"/>
<path d="M67 9H65V11H67V9Z" fill="#00FF00"/>
<path d="M49 1H47V3H49V1Z" fill="#00FF00"/>
<path d="M75 1H73V3H75V1Z" fill="#00FF00"/>
<path d="M85 7H83V9H85V7Z" fill="#00FF00"/>
<path d="M101 7H99V9H101V7Z" fill="#00FF00"/>
<path d="M89 7H87V9H89V7Z" fill="#00FF00"/>
<path d="M105 7H103V9H105V7Z" fill="#00FF00"/>
<path d="M67 7H65V9H67V7Z" fill="#00FF00"/>
<path d="M69 7H67V9H69V7Z" fill="#00FF00"/>
<path d="M71 7H69V9H71V7Z" fill="#00FF00"/>
<path d="M71 9H69V11H71V9Z" fill="#00FF00"/>
<path d="M71 11H69V13H71V11Z" fill="#00FF00"/>
<path d="M69 15H67V17H69V15Z" fill="#00FF00"/>
<path d="M71 15H69V17H71V15Z" fill="#00FF00"/>
<path d="M71 13H69V15H71V13Z" fill="#00FF00"/>
<path d="M51 1H49V3H51V1Z" fill="#00FF00"/>
<path d="M53 1H51V3H53V1Z" fill="#00FF00"/>
<path d="M55 1H53V3H55V1Z" fill="#00FF00"/>
<path d="M41 11H39V13H41V11Z" fill="#00FF00"/>
<path d="M41 13H39V15H41V13Z" fill="#00FF00"/>
<path d="M41 15H39V17H41V15Z" fill="#00FF00"/>
<path d="M37 1H35V3H37V1Z" fill="#00FF00"/>
<path d="M37 9H35V11H37V9Z" fill="#00FF00"/>
<path d="M37 3H35V5H37V3Z" fill="#00FF00"/>
<path d="M37 11H35V13H37V11Z" fill="#00FF00"/>
<path d="M37 13H35V15H37V13Z" fill="#00FF00"/>
<path d="M37 15H35V17H37V15Z" fill="#00FF00"/>
<path d="M37 5H35V7H37V5Z" fill="#00FF00"/>
<path d="M29 11H27V13H29V11Z" fill="#00FF00"/>
<path d="M29 13H27V15H29V13Z" fill="#00FF00"/>
<path d="M31 15H29V17H31V15Z" fill="#00FF00"/>
<path d="M33 15H31V17H33V15Z" fill="#00FF00"/>
<path d="M21 5H19V7H21V5Z" fill="#00FF00"/>
<path d="M23 3H21V5H23V3Z" fill="#00FF00"/>
<path d="M23 1H21V3H23V1Z" fill="#00FF00"/>
<path d="M23 9H21V11H23V9Z" fill="#00FF00"/>
<path d="M23 11H21V13H23V11Z" fill="#00FF00"/>
<path d="M23 13H21V15H23V13Z" fill="#00FF00"/>
<path d="M23 15H21V17H23V15Z" fill="#00FF00"/>
<path d="M25 15H23V17H25V15Z" fill="#00FF00"/>
<path d="M15 7H13V9H15V7Z" fill="#00FF00"/>
<path d="M17 7H15V9H17V7Z" fill="#00FF00"/>
<path d="M17 9H15V11H17V9Z" fill="#00FF00"/>
<path d="M17 11H15V13H17V11Z" fill="#00FF00"/>
<path d="M17 13H15V15H17V13Z" fill="#00FF00"/>
<path d="M17 15H15V17H17V15Z" fill="#00FF00"/>
<path d="M19 15H17V17H19V15Z" fill="#00FF00"/>
<path d="M15 15H13V17H15V15Z" fill="#00FF00"/>
<path d="M13 15H11V17H13V15Z" fill="#00FF00"/>
<path d="M13 13H11V15H13V13Z" fill="#00FF00"/>
<path d="M13 11H11V13H13V11Z" fill="#00FF00"/>
<path d="M15 11H13V13H15V11Z" fill="#00FF00"/>
<path d="M3 3H1V5H3V3Z" fill="#00FF00"/>
<path d="M3 5H1V7H3V5Z" fill="#00FF00"/>
<path d="M3 7H1V9H3V7Z" fill="#00FF00"/>
<path d="M3 9H1V11H3V9Z" fill="#00FF00"/>
<path d="M3 11H1V13H3V11Z" fill="#00FF00"/>
<path d="M3 13H1V15H3V13Z" fill="#00FF00"/>
<path d="M3 15H1V17H3V15Z" fill="#00FF00"/>
</svg>
